<svg width="38" height="38" viewBox="0 0 38 38" fill="none" xmlns="http://www.w3.org/2000/svg">
<path d="M24.4571 8.62377C24.0666 8.23325 23.4334 8.23325 23.0429 8.62377L22.2238 9.44283C21.8336 9.83305 21.8333 10.4656 22.2231 10.8563L28.7692 17.4167H4.16666C3.61437 17.4167 3.16666 17.8644 3.16666 18.4167V19.5833C3.16666 20.1356 3.61437 20.5833 4.16666 20.5833H28.7692L22.2113 27.1412C21.8198 27.5327 21.8209 28.1678 22.2138 28.5579L23.0429 29.3812C23.4338 29.7694 24.0651 29.7683 24.4546 29.3787L34.1262 19.7071C34.5167 19.3166 34.5167 18.6834 34.1262 18.2929L24.4571 8.62377Z" fill="white"/>
</svg>
