<svg width="51" height="54" viewBox="0 0 51 54" fill="none" xmlns="http://www.w3.org/2000/svg">
<circle cx="23" cy="23" r="23" fill="#709AF4" fill-opacity="0.28"/>
<path d="M42.9186 23.793L37.3522 21.5664L35.1257 16H15.0866C14.4631 16 13.9733 16.4898 13.9733 17.1133V52.8867C13.9733 53.5101 14.4631 54 15.0866 54H41.8054C42.4289 54 42.9186 53.5101 42.9186 52.8867V23.793Z" fill="#ECF2FF"/>
<path d="M35.1257 16H28.446V54H41.8054C42.4289 54 42.9186 53.5101 42.9186 52.8867V23.793L37.3522 21.5664L35.1257 16Z" fill="#D9E5FF"/>
<path d="M42.9186 23.793H36.239C35.6241 23.793 35.1257 23.2945 35.1257 22.6797V16C35.4151 16 35.7046 16.1113 35.9049 16.3339L42.5846 23.0136C42.8074 23.2141 42.9186 23.5035 42.9186 23.793Z" fill="#BFD6FF"/>
<path d="M30.6725 29.3594H19.5397C18.9244 29.3594 18.4265 28.8614 18.4265 28.2461C18.4265 27.6307 18.9244 27.1328 19.5397 27.1328H30.6725C31.2879 27.1328 31.7858 27.6307 31.7858 28.2461C31.7858 28.8614 31.2879 29.3594 30.6725 29.3594Z" fill="#D9E5FF"/>
<path d="M30.6725 33.8125H19.5397C18.9244 33.8125 18.4265 33.3146 18.4265 32.6992C18.4265 32.0839 18.9244 31.5859 19.5397 31.5859H30.6725C31.2879 31.5859 31.7858 32.0839 31.7858 32.6992C31.7858 33.3146 31.2879 33.8125 30.6725 33.8125Z" fill="#D9E5FF"/>
<path d="M30.6725 38.2656H19.5397C18.9244 38.2656 18.4265 37.7677 18.4265 37.1523C18.4265 36.537 18.9244 36.0391 19.5397 36.0391H30.6725C31.2879 36.0391 31.7858 36.537 31.7858 37.1523C31.7858 37.7677 31.2879 38.2656 30.6725 38.2656Z" fill="#D9E5FF"/>
<path d="M21.7663 49.3984C19.9246 49.3984 18.4265 47.9003 18.4265 46.0586C18.4265 44.2169 19.9246 42.7188 21.7663 42.7188C23.608 42.7188 25.1061 44.2169 25.1061 46.0586C25.1061 47.9003 23.608 49.3984 21.7663 49.3984Z" fill="#FFA040"/>
<path d="M46.552 30.1791C46.1172 29.7443 46.1172 29.0397 46.552 28.6049L48.1263 27.0306C48.5611 26.5958 49.2657 26.5958 49.7005 27.0306C50.1354 27.4655 50.1354 28.17 49.7005 28.6049L48.1263 30.1791C47.6914 30.614 46.9869 30.614 46.552 30.1791Z" fill="#ECF2FF"/>
<path d="M44.1878 35.705L34.2796 45.591C33.2999 46.5707 32.0753 47.2386 30.7394 47.5726L29.2252 49.0643C28.8247 49.5096 28.0674 49.5098 27.6667 49.0643C27.2214 48.6413 27.2214 47.9288 27.6667 47.5057L29.1584 45.9917C29.4923 44.6558 30.1604 43.4312 31.1401 42.4515L41.0482 32.5656L44.9133 31.9775L44.1878 35.705Z" fill="#4D5E80"/>
<path d="M30.6725 36.0391H28.446V38.2656H30.6725C31.2879 38.2656 31.7858 37.7677 31.7858 37.1523C31.7858 36.537 31.2879 36.0391 30.6725 36.0391Z" fill="#BFD6FF"/>
<path d="M30.6725 31.5859H28.446V33.8125H30.6725C31.2879 33.8125 31.7858 33.3146 31.7858 32.6992C31.7858 32.0839 31.2879 31.5859 30.6725 31.5859Z" fill="#BFD6FF"/>
<path d="M30.6725 27.1328H28.446V29.3594H30.6725C31.2879 29.3594 31.7858 28.8614 31.7858 28.2461C31.7858 27.6307 31.2879 27.1328 30.6725 27.1328Z" fill="#BFD6FF"/>
<path d="M48.1263 30.1791L49.7006 28.6049C50.1354 28.17 50.1354 27.4655 49.7006 27.0306L46.5521 30.1791C46.987 30.614 47.6915 30.614 48.1263 30.1791Z" fill="#D9E5FF"/>
<path d="M29.2253 49.0644L30.7395 47.5726C32.0753 47.2386 33.3 46.5707 34.2796 45.591L44.1878 35.7051L44.9134 31.9777L44.7249 32.0063L27.6667 49.0644C28.0674 49.5098 28.8247 49.5096 29.2253 49.0644Z" fill="#3D4566"/>
<path d="M49.2422 30.6285L44.1878 35.705L41.0483 32.5656L46.1027 27.489C46.5257 27.0659 47.2382 27.0659 47.6612 27.489L49.2422 29.0699C49.6652 29.493 49.6652 30.2055 49.2422 30.6285Z" fill="#59C8FF"/>
<path d="M44.1878 35.705L49.2422 30.6285C49.6652 30.2055 49.6652 29.493 49.2422 29.0699L48.4518 28.2794L42.6069 34.1242L44.1878 35.705Z" fill="#4DA6FF"/>
</svg>
