<svg width="31" height="17" viewBox="0 0 31 17" fill="none" xmlns="http://www.w3.org/2000/svg">
<path d="M5.16667 9.79167C6.5875 9.79167 7.75 8.62917 7.75 7.20833C7.75 5.7875 6.5875 4.625 5.16667 4.625C3.74583 4.625 2.58333 5.7875 2.58333 7.20833C2.58333 8.62917 3.74583 9.79167 5.16667 9.79167ZM6.62625 11.2125C6.14833 11.135 5.67042 11.0833 5.16667 11.0833C3.88792 11.0833 2.67375 11.3546 1.57583 11.8325C0.62 12.2458 0 13.1758 0 14.2221V16.25H5.8125V14.1704C5.8125 13.0983 6.10958 12.0908 6.62625 11.2125ZM25.8333 9.79167C27.2542 9.79167 28.4167 8.62917 28.4167 7.20833C28.4167 5.7875 27.2542 4.625 25.8333 4.625C24.4125 4.625 23.25 5.7875 23.25 7.20833C23.25 8.62917 24.4125 9.79167 25.8333 9.79167ZM31 14.2221C31 13.1758 30.38 12.2458 29.4242 11.8325C28.3263 11.3546 27.1121 11.0833 25.8333 11.0833C25.3296 11.0833 24.8517 11.135 24.3738 11.2125C24.8904 12.0908 25.1875 13.0983 25.1875 14.1704V16.25H31V14.2221ZM20.9767 10.6312C19.4654 9.95958 17.6054 9.46875 15.5 9.46875C13.3946 9.46875 11.5346 9.9725 10.0233 10.6312C8.62833 11.2512 7.75 12.6462 7.75 14.1704V16.25H23.25V14.1704C23.25 12.6462 22.3717 11.2512 20.9767 10.6312ZM10.4237 13.6667C10.54 13.3696 10.5917 13.1629 11.5992 12.7754C12.8521 12.2846 14.1696 12.0521 15.5 12.0521C16.8304 12.0521 18.1479 12.2846 19.4008 12.7754C20.3954 13.1629 20.4471 13.3696 20.5763 13.6667H10.4237ZM15.5 3.33333C16.2104 3.33333 16.7917 3.91458 16.7917 4.625C16.7917 5.33542 16.2104 5.91667 15.5 5.91667C14.7896 5.91667 14.2083 5.33542 14.2083 4.625C14.2083 3.91458 14.7896 3.33333 15.5 3.33333ZM15.5 0.75C13.3558 0.75 11.625 2.48083 11.625 4.625C11.625 6.76917 13.3558 8.5 15.5 8.5C17.6442 8.5 19.375 6.76917 19.375 4.625C19.375 2.48083 17.6442 0.75 15.5 0.75Z" fill="#678FF5"/>
</svg>
