<svg width="46" height="51" viewBox="0 0 46 51" fill="none" xmlns="http://www.w3.org/2000/svg">
<circle cx="23" cy="23" r="23" fill="#4175DF" fill-opacity="0.28"/>
<path d="M41.4727 23.0195L33.6797 20.793L31.4531 13H15.8672C14.0226 13 12.5273 14.4953 12.5273 16.3398V47.6602C12.5273 49.5047 14.0226 51 15.8672 51H38.1328C39.9774 51 41.4727 49.5047 41.4727 47.6602V23.0195Z" fill="#4086F4"/>
<path d="M41.4727 23.0195V47.6602C41.4727 49.5047 39.9774 51 38.1328 51H27V13H31.4531L33.6797 20.793L41.4727 23.0195Z" fill="#4175DF"/>
<path d="M41.4727 23.0195H33.6797C32.4551 23.0195 31.4531 22.0176 31.4531 20.793V13C31.7426 13 32.032 13.1113 32.2323 13.3341L41.1386 22.2403C41.3613 22.4406 41.4727 22.7301 41.4727 23.0195Z" fill="#80AEF8"/>
<path d="M33.6797 30.8867H20.3203C19.705 30.8867 19.207 30.3888 19.207 29.7734C19.207 29.1581 19.705 28.6602 20.3203 28.6602H33.6797C34.295 28.6602 34.793 29.1581 34.793 29.7734C34.793 30.3888 34.295 30.8867 33.6797 30.8867Z" fill="#FFF5F5"/>
<path d="M33.6797 35.3398H20.3203C19.705 35.3398 19.207 34.8419 19.207 34.2266C19.207 33.6112 19.705 33.1133 20.3203 33.1133H33.6797C34.295 33.1133 34.793 33.6112 34.793 34.2266C34.793 34.8419 34.295 35.3398 33.6797 35.3398Z" fill="#FFF5F5"/>
<path d="M33.6797 39.793H20.3203C19.705 39.793 19.207 39.295 19.207 38.6797C19.207 38.0643 19.705 37.5664 20.3203 37.5664H33.6797C34.295 37.5664 34.793 38.0643 34.793 38.6797C34.793 39.295 34.295 39.793 33.6797 39.793Z" fill="#FFF5F5"/>
<path d="M29.2266 44.2461H20.3203C19.705 44.2461 19.207 43.7482 19.207 43.1328C19.207 42.5175 19.705 42.0195 20.3203 42.0195H29.2266C29.8419 42.0195 30.3398 42.5175 30.3398 43.1328C30.3398 43.7482 29.8419 44.2461 29.2266 44.2461Z" fill="#FFF5F5"/>
<path d="M27 44.2461H29.2266C29.8419 44.2461 30.3398 43.7482 30.3398 43.1328C30.3398 42.5175 29.8419 42.0195 29.2266 42.0195H27V44.2461Z" fill="#E3E7EA"/>
<path d="M27 39.793H33.6797C34.295 39.793 34.793 39.295 34.793 38.6797C34.793 38.0643 34.295 37.5664 33.6797 37.5664H27V39.793Z" fill="#E3E7EA"/>
<path d="M27 35.3398H33.6797C34.295 35.3398 34.793 34.8419 34.793 34.2266C34.793 33.6112 34.295 33.1133 33.6797 33.1133H27V35.3398Z" fill="#E3E7EA"/>
<path d="M27 30.8867H33.6797C34.295 30.8867 34.793 30.3888 34.793 29.7734C34.793 29.1581 34.295 28.6602 33.6797 28.6602H27V30.8867Z" fill="#E3E7EA"/>
</svg>
