<svg width="51" height="46" viewBox="0 0 51 46" fill="none" xmlns="http://www.w3.org/2000/svg">
<circle cx="23" cy="23" r="23" fill="#4D88FF" fill-opacity="0.28"/>
<path d="M49.5 16H13.5C12.6599 16 12 16.6599 12 17.5V44.5C12 45.2013 12.8655 45.3997 13.5155 45.1366L22.139 41.6461C22.3774 41.5496 22.6322 41.5 22.8894 41.5H34.2502C34.4161 41.5 34.5813 41.5207 34.7421 41.5614L49.4345 45.2894C50.1321 45.4664 51 45.2197 51 44.5V17.5C51 16.6599 50.3401 16 49.5 16Z" fill="#66B3FF"/>
<path d="M49.5001 16H33.5001C32.3955 16 31.5001 16.8954 31.5001 18V39.5C31.5001 40.6046 32.3955 41.5 33.5001 41.5H34.2503C34.4162 41.5 34.5814 41.5207 34.7422 41.5614L49.4345 45.2894C50.1321 45.4664 51.0001 45.2197 51.0001 44.5V17.5C51.0001 16.6599 50.3402 16 49.5001 16Z" fill="#4D88FF"/>
<path d="M50.58 45.5801C50.28 45.8201 49.92 46.0001 49.5 46.0001H13.5C13.08 46.0001 12.72 45.8201 12.42 45.5801L21.4393 36.5608C22.0251 35.975 22.9748 35.975 23.5606 36.5608L24.4393 37.4395C25.0251 38.0253 25.9748 38.0253 26.5606 37.4395L33.4393 30.5607C34.0251 29.9749 34.9748 29.9749 35.5606 30.5607L50.58 45.5801Z" fill="#ADE65C"/>
<path d="M22.5 31C20.0186 31 18 28.9814 18 26.5C18 24.0186 20.0186 22 22.5 22C24.9814 22 27 24.0186 27 26.5C27 28.9814 24.9814 31 22.5 31Z" fill="#FFCB66"/>
<path d="M33.4394 30.5605L31.5001 32.4998V46H49.5001C49.9201 46 50.2801 45.82 50.5801 45.58L35.5608 30.5605C34.9749 29.9748 34.0253 29.9748 33.4394 30.5605Z" fill="#7ACC52"/>
</svg>
