<svg width="46" height="50" viewBox="0 0 46 50" fill="none" xmlns="http://www.w3.org/2000/svg">
<circle cx="23" cy="23" r="23" fill="#734BBD" fill-opacity="0.28"/>
<path d="M41.4727 22.0195L33.6797 19.793L31.4531 12H15.8672C14.0226 12 12.5273 13.4953 12.5273 15.3398V46.6602C12.5273 48.5047 14.0226 50 15.8672 50H38.1328C39.9774 50 41.4727 48.5047 41.4727 46.6602V22.0195Z" fill="#734BBD"/>
<path d="M18.0938 32.1133C18.7086 32.1133 19.207 31.6148 19.207 31C19.207 30.3852 18.7086 29.8867 18.0938 29.8867C17.4789 29.8867 16.9805 30.3852 16.9805 31C16.9805 31.6148 17.4789 32.1133 18.0938 32.1133Z" fill="#FFF5F5"/>
<path d="M18.0938 36.5664C18.7086 36.5664 19.207 36.068 19.207 35.4531C19.207 34.8383 18.7086 34.3398 18.0938 34.3398C17.4789 34.3398 16.9805 34.8383 16.9805 35.4531C16.9805 36.068 17.4789 36.5664 18.0938 36.5664Z" fill="#FFF5F5"/>
<path d="M18.0938 41.0195C18.7086 41.0195 19.207 40.5211 19.207 39.9062C19.207 39.2914 18.7086 38.793 18.0938 38.793C17.4789 38.793 16.9805 39.2914 16.9805 39.9062C16.9805 40.5211 17.4789 41.0195 18.0938 41.0195Z" fill="#FFF5F5"/>
<path d="M41.4727 22.0195V46.6602C41.4727 48.5047 39.9774 50 38.1328 50H27V12H31.4531L33.6797 19.793L41.4727 22.0195Z" fill="#5F45A9"/>
<path d="M33.6797 32.1133H22.5469C21.9315 32.1133 21.4336 31.6153 21.4336 31C21.4336 30.3847 21.9315 29.8867 22.5469 29.8867H33.6797C34.295 29.8867 34.793 30.3847 34.793 31C34.793 31.6153 34.295 32.1133 33.6797 32.1133Z" fill="#FFF5F5"/>
<path d="M33.6797 36.5664H22.5469C21.9315 36.5664 21.4336 36.0685 21.4336 35.4531C21.4336 34.8378 21.9315 34.3398 22.5469 34.3398H33.6797C34.295 34.3398 34.793 34.8378 34.793 35.4531C34.793 36.0685 34.295 36.5664 33.6797 36.5664Z" fill="#FFF5F5"/>
<path d="M33.6797 41.0195H22.5469C21.9315 41.0195 21.4336 40.5216 21.4336 39.9062C21.4336 39.2909 21.9315 38.793 22.5469 38.793H33.6797C34.295 38.793 34.793 39.2909 34.793 39.9062C34.793 40.5216 34.295 41.0195 33.6797 41.0195Z" fill="#FFF5F5"/>
<path d="M27 41.0195H33.6797C34.295 41.0195 34.793 40.5216 34.793 39.9062C34.793 39.2909 34.295 38.793 33.6797 38.793H27V41.0195Z" fill="#E3E7EA"/>
<path d="M27 36.5664H33.6797C34.295 36.5664 34.793 36.0685 34.793 35.4531C34.793 34.8378 34.295 34.3398 33.6797 34.3398H27V36.5664Z" fill="#E3E7EA"/>
<path d="M27 32.1133H33.6797C34.295 32.1133 34.793 31.6153 34.793 31C34.793 30.3847 34.295 29.8867 33.6797 29.8867H27V32.1133Z" fill="#E3E7EA"/>
<path d="M41.4727 22.0195H33.6797C32.4551 22.0195 31.4531 21.0176 31.4531 19.793V12C31.7426 12 32.032 12.1113 32.2323 12.3341L41.1386 21.2403C41.3613 21.4406 41.4727 21.7301 41.4727 22.0195Z" fill="#9B7ED0"/>
</svg>
