<svg width="14" height="14" viewBox="0 0 14 14" fill="none" xmlns="http://www.w3.org/2000/svg">
<path d="M6.99999 1.16663C4.74249 1.16663 2.91666 2.99246 2.91666 5.24996C2.91666 8.31246 6.99999 12.8333 6.99999 12.8333C6.99999 12.8333 11.0833 8.31246 11.0833 5.24996C11.0833 2.99246 9.25749 1.16663 6.99999 1.16663ZM4.08332 5.24996C4.08332 3.63996 5.38999 2.33329 6.99999 2.33329C8.60999 2.33329 9.91666 3.63996 9.91666 5.24996C9.91666 6.92996 8.23666 9.44413 6.99999 11.0133C5.78666 9.45579 4.08332 6.91246 4.08332 5.24996Z" fill="#8F8F8F"/>
<path d="M6.99999 6.70829C7.80541 6.70829 8.45832 6.05537 8.45832 5.24996C8.45832 4.44454 7.80541 3.79163 6.99999 3.79163C6.19457 3.79163 5.54166 4.44454 5.54166 5.24996C5.54166 6.05537 6.19457 6.70829 6.99999 6.70829Z" fill="#8F8F8F"/>
</svg>
