<svg width="21" height="21" viewBox="0 0 21 21" fill="none" xmlns="http://www.w3.org/2000/svg">
<path d="M10.5 7C11.4625 7 12.25 6.2125 12.25 5.25C12.25 4.2875 11.4625 3.5 10.5 3.5C9.5375 3.5 8.75 4.2875 8.75 5.25C8.75 6.2125 9.5375 7 10.5 7ZM10.5 8.75C9.5375 8.75 8.75 9.5375 8.75 10.5C8.75 11.4625 9.5375 12.25 10.5 12.25C11.4625 12.25 12.25 11.4625 12.25 10.5C12.25 9.5375 11.4625 8.75 10.5 8.75ZM10.5 14C9.5375 14 8.75 14.7875 8.75 15.75C8.75 16.7125 9.5375 17.5 10.5 17.5C11.4625 17.5 12.25 16.7125 12.25 15.75C12.25 14.7875 11.4625 14 10.5 14Z" fill="#323232"/>
</svg>
