<svg width="14" height="19" viewBox="0 0 14 19" fill="none" xmlns="http://www.w3.org/2000/svg">
<path d="M14 5.0975L10.2308 4.02057L9.15385 0.251343H1.61538C0.723226 0.251343 0 0.974568 0 1.86673V17.0154C0 17.9076 0.723226 18.6308 1.61538 18.6308H12.3846C13.2768 18.6308 14 17.9076 14 17.0154V5.0975Z" fill="#4086F4"/>
<path d="M14 5.09744V17.0154C14 17.9075 13.2768 18.6308 12.3846 18.6308H7V0.251282H9.15385L10.2308 4.02051L14 5.09744Z" fill="#4175DF"/>
<path d="M14.0001 5.09744H10.2309C9.63855 5.09744 9.15393 4.61282 9.15393 4.02051V0.251282C9.29393 0.251282 9.43393 0.305128 9.53082 0.412856L13.8385 4.72055C13.9462 4.81744 14.0001 4.95744 14.0001 5.09744Z" fill="#80AEF8"/>
<path d="M10.2307 8.90255H3.76917C3.47155 8.90255 3.23071 8.66171 3.23071 8.36408C3.23071 8.06646 3.47155 7.82562 3.76917 7.82562H10.2307C10.5283 7.82562 10.7692 8.06646 10.7692 8.36408C10.7692 8.66171 10.5283 8.90255 10.2307 8.90255Z" fill="#FFF5F5"/>
<path d="M10.2307 11.0564H3.76917C3.47155 11.0564 3.23071 10.8156 3.23071 10.518C3.23071 10.2203 3.47155 9.97949 3.76917 9.97949H10.2307C10.5283 9.97949 10.7692 10.2203 10.7692 10.518C10.7692 10.8156 10.5283 11.0564 10.2307 11.0564Z" fill="#FFF5F5"/>
<path d="M10.2307 13.2103H3.76917C3.47155 13.2103 3.23071 12.9694 3.23071 12.6718C3.23071 12.3742 3.47155 12.1334 3.76917 12.1334H10.2307C10.5283 12.1334 10.7692 12.3742 10.7692 12.6718C10.7692 12.9694 10.5283 13.2103 10.2307 13.2103Z" fill="#FFF5F5"/>
<path d="M8.07687 15.3641H3.76917C3.47155 15.3641 3.23071 15.1233 3.23071 14.8256C3.23071 14.528 3.47155 14.2872 3.76917 14.2872H8.07687C8.37449 14.2872 8.61533 14.528 8.61533 14.8256C8.61533 15.1233 8.37449 15.3641 8.07687 15.3641Z" fill="#FFF5F5"/>
<path d="M7 15.3642H8.07692C8.37455 15.3642 8.61538 15.1234 8.61538 14.8258C8.61538 14.5281 8.37455 14.2873 8.07692 14.2873H7V15.3642Z" fill="#E3E7EA"/>
<path d="M7 13.2103H10.2308C10.5284 13.2103 10.7692 12.9695 10.7692 12.6719C10.7692 12.3743 10.5284 12.1334 10.2308 12.1334H7V13.2103Z" fill="#E3E7EA"/>
<path d="M7 11.0565H10.2308C10.5284 11.0565 10.7692 10.8157 10.7692 10.5181C10.7692 10.2205 10.5284 9.97961 10.2308 9.97961H7V11.0565Z" fill="#E3E7EA"/>
<path d="M7 8.90261H10.2308C10.5284 8.90261 10.7692 8.66177 10.7692 8.36415C10.7692 8.06652 10.5284 7.82568 10.2308 7.82568H7V8.90261Z" fill="#E3E7EA"/>
</svg>
