<svg width="18" height="24" viewBox="0 0 18 24" fill="none" xmlns="http://www.w3.org/2000/svg">
<path d="M18 6.23077L13.1538 4.84615L11.7692 0H2.07692C0.929862 0 0 0.929862 0 2.07692V21.5538C0 22.7009 0.929862 23.6308 2.07692 23.6308H15.9231C17.0701 23.6308 18 22.7009 18 21.5538V6.23077Z" fill="#734BBD"/>
<path d="M3.46153 12.5077C3.84388 12.5077 4.15384 12.1977 4.15384 11.8154C4.15384 11.433 3.84388 11.123 3.46153 11.123C3.07918 11.123 2.76923 11.433 2.76923 11.8154C2.76923 12.1977 3.07918 12.5077 3.46153 12.5077Z" fill="#FFF5F5"/>
<path d="M3.46153 15.2769C3.84388 15.2769 4.15384 14.967 4.15384 14.5846C4.15384 14.2023 3.84388 13.8923 3.46153 13.8923C3.07918 13.8923 2.76923 14.2023 2.76923 14.5846C2.76923 14.967 3.07918 15.2769 3.46153 15.2769Z" fill="#FFF5F5"/>
<path d="M3.46153 18.0462C3.84388 18.0462 4.15384 17.7362 4.15384 17.3539C4.15384 16.9715 3.84388 16.6616 3.46153 16.6616C3.07918 16.6616 2.76923 16.9715 2.76923 17.3539C2.76923 17.7362 3.07918 18.0462 3.46153 18.0462Z" fill="#FFF5F5"/>
<path d="M18 6.23077V21.5538C18 22.7009 17.0701 23.6308 15.9231 23.6308H9V0H11.7692L13.1538 4.84615L18 6.23077Z" fill="#5F45A9"/>
<path d="M13.1538 12.5077H6.23076C5.8481 12.5077 5.53845 12.198 5.53845 11.8154C5.53845 11.4327 5.8481 11.123 6.23076 11.123H13.1538C13.5365 11.123 13.8461 11.4327 13.8461 11.8154C13.8461 12.198 13.5365 12.5077 13.1538 12.5077Z" fill="#FFF5F5"/>
<path d="M13.1538 15.2769H6.23076C5.8481 15.2769 5.53845 14.9673 5.53845 14.5846C5.53845 14.202 5.8481 13.8923 6.23076 13.8923H13.1538C13.5365 13.8923 13.8461 14.202 13.8461 14.5846C13.8461 14.9673 13.5365 15.2769 13.1538 15.2769Z" fill="#FFF5F5"/>
<path d="M13.1538 18.0462H6.23076C5.8481 18.0462 5.53845 17.7365 5.53845 17.3539C5.53845 16.9712 5.8481 16.6616 6.23076 16.6616H13.1538C13.5365 16.6616 13.8461 16.9712 13.8461 17.3539C13.8461 17.7365 13.5365 18.0462 13.1538 18.0462Z" fill="#FFF5F5"/>
<path d="M9 18.0462H13.1538C13.5365 18.0462 13.8462 17.7365 13.8462 17.3539C13.8462 16.9712 13.5365 16.6616 13.1538 16.6616H9V18.0462Z" fill="#E3E7EA"/>
<path d="M9 15.2769H13.1538C13.5365 15.2769 13.8462 14.9673 13.8462 14.5846C13.8462 14.202 13.5365 13.8923 13.1538 13.8923H9V15.2769Z" fill="#E3E7EA"/>
<path d="M9 12.5077H13.1538C13.5365 12.5077 13.8462 12.198 13.8462 11.8154C13.8462 11.4327 13.5365 11.123 13.1538 11.123H9V12.5077Z" fill="#E3E7EA"/>
<path d="M18 6.23077H13.1538C12.3923 6.23077 11.7692 5.60769 11.7692 4.84615V0C11.9492 0 12.1292 0.0692308 12.2538 0.207738L17.7923 5.7462C17.9308 5.87077 18 6.05077 18 6.23077Z" fill="#9B7ED0"/>
</svg>
